<svg width="86" height="83" viewBox="0 0 86 83" fill="none" xmlns="http://www.w3.org/2000/svg">
<path d="M42.5313 44.9062C45.0264 41.4151 47.7188 31.9375 58.0938 31.9375C65.8076 31.9375 71.0625 37.1924 71.0625 44.9062C71.0625 58.871 54.504 59.369 42.5313 76.0312C30.5585 59.369 14 58.871 14 44.9062C14 37.1924 19.2549 31.9375 26.9688 31.9375C37.3438 31.9375 40.0361 41.4151 42.5313 44.9062Z" stroke="white" stroke-width="2.5"/>
<path d="M71.0625 26.75C71.0625 16.375 60.6875 11.1875 60.6875 11.1875C60.0546 14.0406 59.0638 21.5625 55.5 21.5625C46.7643 21.5625 45.125 6 45.125 6C35.2169 6 37.3489 21.5625 29.5625 21.5625C24.5462 21.5625 24.375 11.1875 24.375 11.1875C24.375 11.1875 14 16.375 14 26.75" stroke="#F32C46" stroke-width="2.5" stroke-linecap="round" stroke-linejoin="round"/>
</svg>
