<svg width="86" height="83" viewBox="0 0 86 83" fill="none" xmlns="http://www.w3.org/2000/svg">
<path d="M25.4325 55.1657C26.2405 55.1657 27.0378 54.9814 27.7639 54.627C28.49 54.2726 29.1257 53.7574 29.6229 53.1205C30.12 52.4836 30.4655 51.7418 30.633 50.9514C30.8005 50.161 30.7856 49.3428 30.5896 48.559L27.9313 37.9258C27.6436 36.7758 26.9799 35.7549 26.0455 35.0254C25.1111 34.2959 23.9597 33.8995 22.7742 33.8994H3.8011C2.33506 41.1011 2.88863 48.568 5.40065 55.4747C7.91266 62.3815 12.2853 68.4593 18.0354 73.0365L21.6081 55.1657H25.4325Z" stroke="#F32C46" stroke-width="2.5"/>
<path d="M74.7195 17.9497H60.3151C59.1297 17.9498 57.9782 18.3462 57.0439 19.0757C56.1095 19.8052 55.4457 20.8261 55.158 21.9761L52.4997 32.6093C52.3037 33.3931 52.2888 34.2113 52.4563 35.0017C52.6238 35.7921 52.9693 36.5339 53.4664 37.1708C53.9636 37.8077 54.5994 38.3229 55.3255 38.6773C56.0515 39.0317 56.8489 39.2159 57.6568 39.216H63.2534L66.057 56.0519C66.2643 57.2933 66.9052 58.4209 67.8657 59.2341C68.8263 60.0473 70.0442 60.4934 71.3027 60.493H78.1257C81.6661 53.8148 83.2263 46.2646 82.6229 38.7301C82.0195 31.1956 79.2776 23.99 74.7195 17.9603V17.9497Z" stroke="#F32C46" stroke-width="2.5"/>
<path d="M42.8744 81.7487C64.8964 81.7487 82.7487 63.8964 82.7487 41.8744C82.7487 19.8524 64.8964 2 42.8744 2C20.8524 2 3 19.8524 3 41.8744C3 63.8964 20.8524 81.7487 42.8744 81.7487Z" stroke="white" stroke-width="2.5"/>
</svg>
