<svg width="110" height="110" viewBox="0 0 110 110" fill="none" xmlns="http://www.w3.org/2000/svg">
<path d="M36.6696 55C36.6696 44.8752 44.8752 36.6652 55 36.6652C65.1249 36.6652 73.3348 44.8752 73.3348 55C73.3348 65.1248 65.1249 73.3348 55 73.3348C44.8752 73.3348 36.6696 65.1248 36.6696 55V55ZM26.7582 55C26.7582 70.598 39.402 83.2418 55 83.2418C70.598 83.2418 83.2419 70.598 83.2419 55C83.2419 39.402 70.598 26.7582 55 26.7582C39.402 26.7582 26.7586 39.4011 26.7586 55H26.7582ZM77.7603 25.6384C77.7598 26.9437 78.1464 28.2199 78.8712 29.3056C79.596 30.3912 80.6264 31.2376 81.8322 31.7376C83.038 32.2376 84.365 32.3688 85.6453 32.1147C86.9257 31.8605 88.102 31.2324 89.0254 30.3098C89.9488 29.3871 90.5778 28.2114 90.833 26.9312C91.0882 25.651 90.958 24.3239 90.459 23.1177C89.9599 21.9115 89.1144 20.8804 88.0293 20.1548C86.9442 19.4291 85.6683 19.0415 84.363 19.041H84.3603C82.6106 19.0418 80.9328 19.7371 79.6953 20.9741C78.4578 22.2111 77.7619 23.8886 77.7603 25.6384V25.6384ZM32.78 99.7691C27.4177 99.5249 24.5032 98.6317 22.5663 97.8771C19.9984 96.8774 18.1663 95.6868 16.24 93.7631C14.3136 91.8394 13.1212 90.009 12.126 87.4412C11.3709 85.5052 10.4777 82.5898 10.234 77.2275C9.96732 71.43 9.91408 69.6885 9.91408 55.0009C9.91408 40.3132 9.97172 38.5766 10.234 32.7743C10.4782 27.412 11.378 24.5023 12.126 22.5606C13.1256 19.9927 14.3163 18.1606 16.24 16.2342C18.1636 14.3079 19.994 13.1155 22.5663 12.1202C24.5023 11.3652 27.4177 10.472 32.78 10.2282C38.5774 9.9616 40.319 9.90836 55 9.90836C69.6811 9.90836 71.4243 9.96512 77.2266 10.2291C82.5889 10.4733 85.4986 11.3731 87.4403 12.1211C90.0082 13.1164 91.8403 14.3114 93.7667 16.2351C95.693 18.1588 96.881 19.9936 97.8807 22.5614C98.6357 24.4974 99.5289 27.4129 99.7727 32.7752C100.039 38.5774 100.093 40.3141 100.093 55.0018C100.093 69.6894 100.039 71.4261 99.7727 77.2284C99.5285 82.5906 98.6309 85.5052 97.8807 87.4421C96.881 90.0099 95.6903 91.8421 93.7667 93.764C91.843 95.6859 90.0082 96.8783 87.4403 97.878C85.5043 98.633 82.5889 99.5262 77.2266 99.77C71.4292 100.037 69.6877 100.09 55 100.09C40.3124 100.09 38.5757 100.037 32.78 99.77V99.7691ZM32.3246 0.33308C26.4695 0.59972 22.4686 1.52812 18.9746 2.88772C15.3582 4.29176 12.2927 6.1754 9.23164 9.23164C6.17056 12.2879 4.29176 15.3538 2.88772 18.9746C1.52812 22.4708 0.59972 26.4695 0.33308 32.3246C0.0620403 38.1889 0 40.0638 0 55C0 69.9362 0.0620403 71.8111 0.33308 77.6754C0.59972 83.5309 1.52812 87.5292 2.88772 91.0254C4.29176 94.6418 6.171 97.7134 9.23164 100.768C12.2923 103.823 15.3538 105.704 18.9746 107.112C22.4752 108.472 26.4695 109.4 32.3246 109.667C38.192 109.934 40.0638 110 55 110C69.9363 110 71.8111 109.938 77.6754 109.667C83.5309 109.4 87.5292 108.472 91.0255 107.112C94.6418 105.704 97.7073 103.825 100.768 100.768C103.829 97.7121 105.704 94.6418 107.112 91.0254C108.472 87.5292 109.405 83.5305 109.667 77.6754C109.934 71.8067 109.996 69.9362 109.996 55C109.996 40.0638 109.934 38.1889 109.667 32.3246C109.4 26.4691 108.472 22.4686 107.112 18.9746C105.704 15.3582 103.825 12.2927 100.768 9.23164C97.7121 6.17056 94.6418 4.29176 91.0299 2.88772C87.5292 1.52812 83.5305 0.59532 77.6798 0.33308C71.8146 0.0651203 69.9407 0 55.0066 0C40.0726 0 38.1942 0.0620403 32.3268 0.33308" fill="white"/>
</svg>
