<svg width="256" height="256" viewBox="0 0 256 256" fill="none" xmlns="http://www.w3.org/2000/svg">
<rect width="256" height="256" fill="#04080F"/>
<path d="M126.709 240L124.588 238.778C103.732 226.766 85.7868 213.043 71.2525 197.991C59.5656 185.887 50.0418 172.899 42.9461 159.385C30.7434 136.147 29.9351 119.439 29.9068 118.739L29.8301 116.854L31.1768 115.534C41.1333 105.766 52.3346 96.3577 64.4819 87.5567C64.887 86.7906 65.2964 86.02 65.7072 85.2514C68.4804 80.0583 71.1386 75.2175 71.5349 74.496C81.3127 54.6648 98.4034 40.4947 99.3551 39.7153L128.314 16L124.98 28.5505L115.737 56.9488C121.487 54.1944 124.913 52.803 125.118 52.72L126.709 52.0771L128.301 52.72C128.823 52.9313 141.298 58.0067 159.176 68.3023C175.657 77.7933 199.976 93.6913 222.242 115.533L223.588 116.854L223.511 118.738C223.5 119.024 223.189 125.864 219.876 136.725C216.869 146.587 210.672 161.921 198.22 178.968L197.941 179.35C181.353 201.926 158.102 221.918 128.829 238.777L126.709 240ZM38.5663 120.198C38.7764 121.969 39.2337 124.981 40.2074 128.947C41.6956 135.011 44.7293 144.614 50.7306 155.931C57.4817 168.662 66.5387 180.926 77.6494 192.383C91.0856 206.238 107.582 218.947 126.709 230.183C153.956 214.181 175.607 195.397 191.089 174.326L191.361 173.954C197.783 165.162 206.516 151.194 211.638 134.608C213.739 127.805 214.548 122.734 214.85 120.198C193.617 99.7015 170.632 84.706 154.935 75.6666C141.172 67.7406 130.578 62.9469 126.709 61.2732C124.062 62.4192 118.269 65.0226 110.516 69.0652L101.292 73.8746L112.333 39.9525L104.746 46.284C104.583 46.4173 88.1167 60.0239 79.1163 78.3342L79.0257 78.5078C78.9087 78.7211 76.1203 83.7902 73.2017 89.255C72.6407 90.3061 72.0815 91.3603 71.533 92.4013L71.0675 93.2844L70.2568 93.8681C58.7296 102.164 48.0768 111.016 38.5663 120.198Z" fill="white"/>
<path d="M120.957 27.2355L102.077 42.9914C102.077 42.9914 84.8651 57.0439 75.3218 76.4581C75.2099 76.6619 72.4114 81.7493 69.4727 87.2518C68.9079 88.3092 68.3456 89.3703 67.7927 90.4182C56.7461 98.3701 45.2026 107.743 34.1699 118.565C34.1699 118.565 36.7998 183.305 126.727 235.096C159.637 216.142 180.855 195.454 194.531 176.84L194.807 176.463C218.233 144.388 219.284 118.565 219.284 118.565C176.799 76.8896 126.727 56.6584 126.727 56.6584C126.727 56.6584 119.654 59.5165 108.57 65.2958L120.957 27.2355Z" fill="#000512"/>
<path d="M113.969 72.8615C113.969 72.8615 98.9984 84.798 91.7152 99.9708L94.0419 87.3266C94.0419 87.3266 88.1752 84.8987 81.5996 79.7396C81.5996 79.7396 69.9668 100.881 69.4611 103.106C68.9554 105.332 69.4611 108.366 69.4611 108.366C69.4611 108.366 66.0217 112.918 65.4153 113.727C64.8084 114.537 61.5715 120.1 62.1785 121.617C62.7855 123.135 66.9834 123.843 70.2706 122.983L66.8312 121.87C66.8312 121.87 71.282 121.314 71.7374 120.656C72.1928 119.999 71.1808 111.704 81.4989 105.635L79.7792 108.771C79.7792 108.771 85.0396 116.964 73.9125 124.045L76.5927 124.348C76.5927 124.348 70.0681 126.877 63.7963 126.827C63.7963 126.827 56.1086 136.891 50.1406 140.533C50.1406 140.533 51.759 145.389 51.759 147.614C51.759 149.84 54.6927 154.29 64.2013 152.874C64.2013 152.874 63.4428 149.436 63.7969 147.513C64.151 145.591 67.5395 140.534 73.7609 139.37C73.7609 139.37 75.2278 131.632 87.0631 128.496L89.2885 122.022C89.2885 122.022 94.3463 127.889 93.5368 142.658C92.7273 157.427 87.733 163.731 85.4447 165.161C83.1557 166.592 78.4351 168.738 78.4351 168.738C78.4351 168.738 84.7295 172.887 88.1626 172.171C91.5957 171.456 99.3211 166.163 99.3211 166.163C99.3211 166.163 98.4625 156.721 101.467 151.142C101.467 151.142 103.898 134.834 101.18 121.244L105.901 126.966C105.901 126.966 111.767 119.956 116.773 108.655C116.773 108.655 108.508 109.176 102.641 107.962L110.193 101.502C110.192 101.502 111.744 88.6413 113.969 72.8615ZM107.688 83.5489L105.543 101.073L103.54 97.7825L95.3861 102.789C95.3854 102.789 101.537 90.0578 107.688 83.5489ZM56.403 138.16C57.4761 140.199 57.8333 142.666 56.725 143.203C55.6161 143.739 53.7568 142.237 54.6864 141.164C55.6161 140.091 56.403 138.16 56.403 138.16Z" fill="#F32C46"/>
<path d="M106.61 48.4277C106.61 48.4277 90.196 62.1255 81.5938 79.7389C81.7994 79.8999 82.0039 80.0584 82.2083 80.2144C85.3766 82.6361 88.3323 84.4105 90.4998 85.5842L94.5921 85.3527L106.61 48.4277Z" fill="#B4BBCC"/>
<path d="M120.221 114.437L136.709 115.145C136.709 115.145 150.163 102.602 181.926 94.5091C181.926 94.5091 162.302 82.168 116.984 90.6652C116.984 90.6652 137.013 93.2951 146.522 95.116L131.955 98.9599C131.955 98.9599 123.458 106.243 120.221 114.437Z" fill="#F32C46"/>
<path d="M203.179 136.994C182.746 127.89 152.399 135.578 152.399 135.578L146.33 126.474C146.33 126.474 156.39 122.102 178.85 122.246C178.85 122.246 173.27 113.806 161.969 104.65L176.561 103.076C176.561 103.076 192.747 115.693 203.179 136.994Z" fill="#F32C46"/>
<path d="M184.557 137.397C185.973 149.334 186.783 162.079 186.783 162.079C175.858 153.784 159.875 144.68 159.875 144.68L161.493 153.784C161.493 153.784 173.323 161.264 184.163 174.215C189.472 167.191 193.535 160.485 196.643 154.362C196.944 146.621 196.088 142.05 196.088 142.05L184.557 137.397Z" fill="#F32C46"/>
<path d="M122.349 121.53C122.349 121.53 128.755 132.198 130.866 148.197C131.368 148.209 131.854 148.222 132.368 148.231C134.231 148.267 136.12 148.284 137.559 148.259C138.278 148.246 138.89 148.221 139.291 148.189C139.372 148.182 139.389 148.177 139.45 148.171C137.382 138.976 135.224 135.407 135.224 135.407L137.202 130.344C128.49 123.437 122.349 121.53 122.349 121.53ZM151.126 144.081C148.934 145.895 146.735 147.713 145.012 149.127C144.111 149.867 143.34 150.497 142.761 150.965C142.183 151.433 142.012 151.602 141.553 151.908C140.888 152.351 140.691 152.28 140.429 152.327C140.167 152.373 139.916 152.399 139.635 152.422C139.074 152.468 138.404 152.492 137.636 152.506C136.097 152.533 134.178 152.516 132.287 152.479C131.952 152.473 131.641 152.464 131.311 152.457C131.668 157.128 131.624 162.173 130.955 167.478C131 167.486 131.044 167.494 131.09 167.502C133.296 167.874 135.591 168.226 137.481 168.447C139.37 168.668 141.086 168.661 141.122 168.654C141.141 168.65 141.775 168.41 142.688 167.993C142.312 162.602 141.52 155.291 141.52 155.291C149.672 148.996 151.126 144.081 151.126 144.081ZM162.182 159.671C159.644 162.053 156.711 164.292 153.868 166.264C151.333 168.021 148.873 169.538 146.82 170.67C144.767 171.802 143.386 172.547 141.915 172.827C140.45 173.107 138.999 172.903 136.986 172.668C134.974 172.432 132.629 172.07 130.383 171.691C130.355 171.686 130.328 171.681 130.3 171.676C129.358 176.735 127.819 181.995 125.504 187.363C130.254 188.51 137.412 190.159 142.369 189.648L142.998 176.342C155.743 168.756 162.182 159.671 162.182 159.671ZM171.398 177.303C167.724 180.378 163.004 183.409 158.411 186.14C154.859 188.251 151.408 190.117 148.634 191.497C147.248 192.187 146.033 192.755 145.04 193.176C144.048 193.598 143.438 193.88 142.549 194.013C141.786 194.128 141.154 194.076 140.289 194.006C139.424 193.936 138.406 193.816 137.275 193.662C135.015 193.354 132.314 192.908 129.706 192.449C127.478 192.057 125.399 191.669 123.655 191.338C119.905 198.837 114.579 206.5 107.186 214.086C107.186 214.086 121.058 215.144 137.9 212.257L141.886 199.71C164.949 189.19 171.398 177.303 171.398 177.303Z" fill="#BB192E"/>
<path d="M71.0989 149.782C68.3451 150.032 65.5196 149.746 65.5196 149.746C65.5196 149.746 65.2693 147.815 66.5568 146.062C66.5568 146.062 68.881 148.53 71.0989 149.782Z" fill="white"/>
<path d="M74.2502 146.289C71.5209 145.846 68.1406 144.722 68.1406 144.722C68.1406 144.722 69.0942 142.861 71.207 141.663C71.207 141.663 72.4147 144.524 74.2502 146.289Z" fill="white"/>
<path d="M83.4845 137.778C80.7553 137.334 77.375 136.21 77.375 136.21C77.375 136.21 78.3286 134.349 80.4414 133.151C80.4414 133.152 81.6491 136.013 83.4845 137.778Z" fill="white"/>
<path d="M87.9463 135.316C85.3856 134.271 82.3438 132.418 82.3438 132.418C82.3438 132.418 83.6905 130.818 86.0178 130.125C86.0178 130.125 86.5531 133.184 87.9463 135.316Z" fill="white"/>
<path d="M85.2478 140.735C85.2478 140.735 81.6065 144.984 81.5052 147.513C81.404 150.041 79.7855 160.056 76.9531 165.923C83.657 162.687 88.5167 158.257 87.6758 146.198L84.2364 151.357L85.2478 140.735Z" fill="#FAD03D"/>
<path d="M87.6758 146.198L85.5321 149.414C84.4244 160.158 76.9531 165.924 76.9531 165.924C83.657 162.688 88.5167 158.257 87.6758 146.198Z" fill="#EBA00F"/>
<path d="M87.0312 143.338C88.8679 144.768 91.4972 146.21 91.4972 146.21C91.4972 146.21 92.0998 144.556 91.6287 142.566C91.6287 142.566 89.1711 143.46 87.0312 143.338Z" fill="white"/>
<path d="M85.375 153.639C87.2117 155.07 89.8409 156.512 89.8409 156.512C89.8409 156.512 90.4429 154.858 89.9724 152.868C89.973 152.868 87.5155 153.761 85.375 153.639Z" fill="white"/>
<path d="M82.4844 159.125C83.2593 161.32 84.6947 163.953 84.6947 163.953C84.6947 163.953 86.0942 162.885 86.7717 160.956C86.7717 160.956 84.2204 160.382 82.4844 159.125Z" fill="white"/>
<path d="M121.209 195.857C117.689 201.9 113.099 208.018 107.186 214.086C107.186 214.086 116.818 214.818 129.771 213.393L136.083 199.494C129.247 198.327 124.223 196.871 121.209 195.857Z" fill="#F32C46"/>
<path d="M129.465 175.606C128.529 179.44 127.237 183.371 125.516 187.363C128.525 188.09 132.502 189.017 136.273 189.469L138.025 176.891C135.756 176.797 131.866 176.084 129.465 175.606Z" fill="#F32C46"/>
<path d="M131.49 155.792C131.611 159.501 131.466 163.414 130.953 167.48C130.998 167.487 131.042 167.495 131.088 167.503C133.294 167.875 135.589 168.227 137.479 168.448C137.584 168.461 137.686 168.47 137.79 168.48L137.727 155.792H131.49Z" fill="#F32C46"/>
<path d="M133.167 136.764L129.125 139.041C129.831 141.836 130.449 144.9 130.884 148.195C131.385 148.207 131.871 148.22 132.385 148.23C133.708 148.255 135.036 148.27 136.215 148.268C135.252 141.945 133.167 136.764 133.167 136.764Z" fill="#F32C46"/>
<path d="M176.828 94.3014C156.347 94.4895 132.792 105.837 132.792 105.837L125.927 105.266C123.782 107.878 121.574 111.08 120.248 114.436L136.736 115.144C136.736 115.144 150.19 102.6 181.953 94.5084C180.278 94.3492 178.564 94.2851 176.828 94.3014Z" fill="#BB192E"/>
<path d="M174.248 126.325C167.802 126.31 163.122 127.282 163.122 127.282L146.33 126.472L152.399 135.577C152.399 135.577 182.746 127.889 203.179 136.993C195.226 128.22 183.08 126.346 174.248 126.325Z" fill="#BB192E"/>
<path d="M159.875 144.682L161.493 153.785C161.493 153.785 173.323 161.266 184.163 174.216C185.475 172.48 186.712 170.764 187.876 169.071C179.654 160.221 165.338 152.065 165.338 152.065L159.875 144.682Z" fill="#BB192E"/>
<path d="M106.61 48.4277C106.61 48.4277 90.196 62.1255 81.5938 79.7389C81.7994 79.8999 82.0039 80.0584 82.2083 80.2144C84.1991 81.736 86.1043 83.0015 87.785 84.0236C90.323 77.5153 96.7464 62.4117 106.61 48.4277Z" fill="white"/>
<path d="M87.0469 128.497C76.1481 130.672 72.025 138.107 72.025 138.107C64.2361 138.815 62.3648 143.772 61.859 145.491C61.3533 147.211 62.1119 149.942 62.1119 149.942C57.105 150.903 54.1211 148.172 53.3618 146.351C52.6033 144.53 50.125 140.535 50.125 140.535C50.125 140.535 51.7434 145.39 51.7434 147.616C51.7434 149.841 54.6771 154.292 64.1857 152.876C64.1857 152.876 63.4271 149.437 63.7813 147.515C64.1354 145.593 67.5239 140.536 73.7453 139.372C73.7447 139.371 75.2115 131.633 87.0469 128.497Z" fill="#BB192E"/>
<path d="M101.168 121.243C101.74 139.125 98.021 151.142 98.021 151.142C95.5175 155.719 95.4458 163.802 95.4458 163.802C95.4458 163.802 91.0824 166.019 89.3659 166.306C88.3362 166.477 86.8662 165.597 85.851 164.865C85.7038 164.979 85.5629 165.079 85.4315 165.161C83.1425 166.591 78.4219 168.737 78.4219 168.737C78.4219 168.737 84.7163 172.886 88.1494 172.17C91.5825 171.455 99.3079 166.162 99.3079 166.162C99.3079 166.162 98.4493 156.721 101.453 151.142C101.454 151.142 103.886 134.833 101.168 121.243Z" fill="#BB192E"/>
<path d="M113.971 72.8615C113.971 72.8615 99 84.798 91.7168 99.9708C91.7168 99.9708 100.466 88.6274 107.69 83.5489L105.544 101.073L110.194 101.502C110.193 101.502 111.746 88.6413 113.971 72.8615Z" fill="#F56578"/>
<path d="M102.641 107.963L110.227 113.729L105.901 126.967C105.901 126.967 111.766 119.957 116.773 108.656C116.773 108.655 108.508 109.176 102.641 107.963Z" fill="#BB192E"/>
<path d="M67.2324 120.706C67.2324 120.706 70.2007 120.778 70.38 119.955C70.5586 119.132 71.0234 115.234 73.0262 111.908C73.0262 111.908 69.8434 114.912 68.52 119.24L67.2324 120.706Z" fill="#BB192E"/>
<path d="M81.5801 79.7394C81.5801 79.7394 69.9473 100.881 69.4416 103.106C68.9358 105.332 69.4416 108.366 69.4416 108.366C69.4416 108.366 70.6555 104.016 71.3638 102.701C72.0721 101.386 82.0864 86.0105 82.0864 86.0105L94.0224 87.3258C94.0217 87.3264 88.155 84.8985 81.5801 79.7394Z" fill="#F56578"/>
<path d="M80.8438 122.225C80.8438 122.225 85.6607 119.67 86.3041 115.593C86.9476 111.516 85.5889 109.799 85.5889 109.799L87.0193 106.509L83.0138 110.514C83.0138 110.515 87.3992 114.623 80.8438 122.225Z" fill="#BB192E"/>
<path d="M126.725 68.7402C126.725 68.7402 124.769 69.5328 121.363 71.1097L120.977 73.8484C120.52 77.089 120.113 80.0868 119.721 82.9935C129.759 81.3184 138.582 80.6334 146.233 80.5982C147.737 80.5913 149.195 80.6101 150.609 80.651C136.459 72.6753 126.725 68.7402 126.725 68.7402ZM194.655 111.216C198.38 115.636 202.399 121.064 206.082 127.409C206.671 124.118 206.749 122.264 206.749 122.264C202.773 118.364 198.721 114.683 194.655 111.216ZM58.3252 111.619C54.4172 114.969 50.523 118.515 46.7012 122.264C46.7012 122.264 46.8622 126.219 48.5586 132.868C49.7418 131.849 51.108 130.545 52.3987 129.211L55.0789 122.631C54.4323 120.056 55.2261 118.906 55.5645 117.796C55.967 116.473 56.4564 115.376 56.9571 114.336C57.4993 113.208 57.8786 112.406 58.3252 111.619ZM116.066 124.822C113.359 129.04 111.327 131.508 111.327 131.508L109.55 133.632C109.805 143.901 108.465 152.185 108.465 152.185L108.282 153.408C105.862 158.216 106.378 165.609 106.743 169.656C101.176 173.354 95.0608 177.903 89.6011 179.102C84.3627 180.193 81.4888 178.311 78.9766 177.122C76.7317 176.059 75.1585 175.047 74.805 174.817L71.1115 176.6C79.0433 186.656 89.5495 197.288 103.459 207.732C123.652 191.337 130.864 148.195 116.275 125.171L116.066 124.822Z" fill="white"/>
<path d="M146.25 87.6811C138.038 87.7188 128.314 88.5409 116.984 90.6651C116.984 90.6651 121.633 91.2771 127.479 92.108C137.29 90.277 158.541 87.8088 181.925 94.5083C181.918 94.5039 170.88 87.5672 146.25 87.6811Z" fill="#F56578"/>
<path d="M176.569 103.076L173.314 103.427C178.657 107.551 193.187 119.706 203.187 136.994C192.755 115.693 176.569 103.076 176.569 103.076Z" fill="#F56578"/>
<path d="M74.1429 121.452C74.1429 121.452 80.6166 116.951 78.1384 111.033C78.139 111.033 73.0302 115.736 74.1429 121.452Z" fill="white"/>
</svg>
