<svg width="32" height="32" viewBox="0 0 32 32" fill="none" xmlns="http://www.w3.org/2000/svg">
<rect width="32" height="32" fill="#04080F"/>
<path d="M15.8383 30L15.5733 29.8473C12.9662 28.3458 10.7231 26.6304 8.90631 24.7488C7.44545 23.2359 6.25499 21.6123 5.36801 19.9231C3.84268 17.0183 3.74165 14.9299 3.73811 14.8424L3.72852 14.6068L3.89685 14.4417C5.14142 13.2208 6.54158 12.0447 8.05999 10.9446C8.11062 10.8488 8.16181 10.7525 8.21315 10.6564C8.55981 10.0073 8.89208 9.40219 8.94162 9.31201C10.1638 6.8331 12.3002 5.06183 12.4191 4.96442L16.0391 2L15.6223 3.56881L14.4669 7.11859C15.1857 6.77429 15.6139 6.60037 15.6395 6.59L15.8384 6.50964L16.0374 6.59C16.1027 6.61641 17.662 7.25084 19.8968 8.53778C21.9569 9.72416 24.9968 11.7114 27.7799 14.4416L27.9483 14.6067L27.9387 14.8423C27.9373 14.878 27.8984 15.733 27.4843 17.0907C27.1084 18.3233 26.3337 20.2401 24.7772 22.3711L24.7423 22.4187C22.6689 25.2407 19.7625 27.7398 16.1034 29.8472L15.8383 30ZM4.82054 15.0248C4.84681 15.2461 4.90397 15.6226 5.02568 16.1184C5.21171 16.8763 5.59092 18.0768 6.34108 19.4913C7.18497 21.0827 8.31709 22.6157 9.70593 24.0478C11.3855 25.7797 13.4475 27.3684 15.8384 28.7728C19.2443 26.7726 21.9507 24.4246 23.8859 21.7907L23.9199 21.7443C24.7226 20.6452 25.8143 18.8993 26.4546 16.826C26.7172 15.9757 26.8183 15.3418 26.856 15.0247C24.2019 12.4627 21.3288 10.5883 19.3666 9.45833C17.6462 8.46757 16.3219 7.86837 15.8384 7.65914C15.5075 7.8024 14.7833 8.12783 13.8143 8.63316L12.6613 9.23432L14.0413 4.99406L13.093 5.7855C13.0726 5.80217 11.0143 7.50299 9.88929 9.79178L9.87796 9.81348C9.86334 9.84013 9.51479 10.4738 9.14997 11.1569C9.07984 11.2883 9.00994 11.42 8.94138 11.5502L8.8832 11.6605L8.78185 11.7335C7.34096 12.7705 6.00936 13.877 4.82054 15.0248Z" fill="white"/>
<path d="M15.1199 3.40442L12.7599 5.3739C12.7599 5.3739 10.6084 7.13048 9.41547 9.55725C9.40148 9.58272 9.05167 10.2186 8.68433 10.9065C8.61373 11.0386 8.54344 11.1713 8.47433 11.3023C7.09351 12.2962 5.65057 13.4678 4.27148 14.8207C4.27148 14.8207 4.60022 22.9131 15.8411 29.387C19.9549 27.0177 22.6071 24.4318 24.3166 22.105L24.3512 22.0578C27.2794 18.0485 27.4108 14.8207 27.4108 14.8207C22.1001 9.61119 15.8411 7.08228 15.8411 7.08228C15.8411 7.08228 14.957 7.43955 13.5715 8.16196L15.1199 3.40442Z" fill="#000512"/>
<path d="M14.2462 9.10767C14.2462 9.10767 12.3748 10.5997 11.4644 12.4963L11.7552 10.9158C11.7552 10.9158 11.0219 10.6123 10.1999 9.96744C10.1999 9.96744 8.74585 12.6101 8.68263 12.8883C8.61942 13.1665 8.68263 13.5458 8.68263 13.5458C8.68263 13.5458 8.25271 14.1148 8.17692 14.2159C8.10104 14.3171 7.69644 15.0125 7.77231 15.2022C7.84819 15.3918 8.37293 15.4803 8.78383 15.3729L8.3539 15.2338C8.3539 15.2338 8.91025 15.1642 8.96718 15.082C9.0241 14.9999 8.8976 13.963 10.1874 13.2044L9.97241 13.5963C9.97241 13.5963 10.6299 14.6205 9.23907 15.5057L9.57409 15.5435C9.57409 15.5435 8.75851 15.8596 7.97453 15.8533C7.97453 15.8533 7.01358 17.1114 6.26758 17.5667C6.26758 17.5667 6.46988 18.1736 6.46988 18.4517C6.46988 18.7299 6.83659 19.2863 8.02517 19.1093C8.02517 19.1093 7.93035 18.6794 7.97461 18.4392C8.01888 18.1989 8.44243 17.5667 9.22012 17.4213C9.22012 17.4213 9.40347 16.4539 10.8829 16.062L11.1611 15.2528C11.1611 15.2528 11.7933 15.9861 11.6921 17.8323C11.5909 19.6783 10.9666 20.4664 10.6806 20.6452C10.3945 20.824 9.80438 21.0922 9.80438 21.0922C9.80438 21.0922 10.5912 21.6108 11.0203 21.5214C11.4495 21.432 12.4151 20.7703 12.4151 20.7703C12.4151 20.7703 12.3078 19.5902 12.6833 18.8928C12.6833 18.8928 12.9873 16.8542 12.6476 15.1555L13.2376 15.8707C13.2376 15.8707 13.9708 14.9945 14.5967 13.5818C14.5967 13.5818 13.5635 13.6469 12.8301 13.4952L13.7741 12.6877C13.7739 12.6878 13.968 11.0801 14.2462 9.10767ZM13.461 10.4436L13.1928 12.6341L12.9425 12.2228L11.9233 12.8487C11.9232 12.8487 12.6921 11.2572 13.461 10.4436ZM7.05037 17.27C7.18451 17.5248 7.22917 17.8333 7.09063 17.9003C6.95201 17.9674 6.7196 17.7797 6.8358 17.6455C6.95201 17.5114 7.05037 17.27 7.05037 17.27Z" fill="#F32C46"/>
<path d="M13.3262 6.05347C13.3262 6.05347 11.2745 7.76569 10.1992 9.96736C10.2249 9.98749 10.2505 10.0073 10.276 10.0268C10.6721 10.3295 11.0415 10.5513 11.3125 10.698L11.824 10.6691L13.3262 6.05347Z" fill="#B4BBCC"/>
<path d="M15.0277 14.3046L17.0887 14.3931C17.0887 14.3931 18.7704 12.8252 22.7407 11.8136C22.7407 11.8136 20.2877 10.271 14.623 11.3332C14.623 11.3332 17.1266 11.6619 18.3152 11.8895L16.4944 12.37C16.4944 12.37 15.4323 13.2804 15.0277 14.3046Z" fill="#F32C46"/>
<path d="M25.3972 17.1242C22.843 15.9862 19.0497 16.9473 19.0497 16.9473L18.291 15.8092C18.291 15.8092 19.5485 15.2628 22.3559 15.2807C22.3559 15.2807 21.6585 14.2257 20.2459 13.0812L22.0698 12.8845C22.0698 12.8845 24.0931 14.4616 25.3972 17.1242Z" fill="#F32C46"/>
<path d="M23.0696 17.1747C23.2466 18.6668 23.3478 20.2599 23.3478 20.2599C21.9822 19.223 19.9844 18.085 19.9844 18.085L20.1867 19.223C20.1867 19.223 21.6654 20.158 23.0203 21.7769C23.684 20.8989 24.1919 20.0606 24.5804 19.2953C24.618 18.3276 24.511 17.7562 24.511 17.7562L23.0696 17.1747Z" fill="#F32C46"/>
<path d="M15.2939 15.1913C15.2939 15.1913 16.0946 16.5248 16.3585 18.5246C16.4212 18.5261 16.482 18.5278 16.5462 18.5289C16.7792 18.5333 17.0153 18.5355 17.1951 18.5323C17.285 18.5307 17.3615 18.5277 17.4116 18.5236C17.4217 18.5228 17.4239 18.5222 17.4315 18.5214C17.173 17.372 16.9032 16.9258 16.9032 16.9258L17.1504 16.293C16.0615 15.4297 15.2939 15.1913 15.2939 15.1913ZM18.8911 18.0101C18.617 18.2369 18.3422 18.4641 18.1267 18.6409C18.0141 18.7334 17.9177 18.8121 17.8454 18.8706C17.7731 18.9291 17.7517 18.9503 17.6944 18.9885C17.6112 19.0439 17.5867 19.035 17.5539 19.0409C17.5211 19.0467 17.4897 19.0499 17.4546 19.0527C17.3845 19.0585 17.3008 19.0615 17.2047 19.0632C17.0124 19.0667 16.7725 19.0645 16.5361 19.0599C16.4942 19.0591 16.4553 19.058 16.4141 19.0571C16.4588 19.641 16.4533 20.2717 16.3696 20.9348C16.3753 20.9357 16.3808 20.9368 16.3865 20.9377C16.6623 20.9842 16.9491 21.0283 17.1854 21.0559C17.4215 21.0835 17.636 21.0826 17.6405 21.0817C17.6429 21.0813 17.7221 21.0512 17.8363 20.9991C17.7893 20.3253 17.6902 19.4113 17.6902 19.4113C18.7093 18.6245 18.8911 18.0101 18.8911 18.0101ZM20.2731 19.9588C19.9557 20.2567 19.5892 20.5366 19.2338 20.783C18.9168 21.0026 18.6094 21.1923 18.3528 21.3337C18.0961 21.4753 17.9235 21.5684 17.7397 21.6034C17.5565 21.6383 17.3752 21.6129 17.1236 21.5835C16.872 21.554 16.5789 21.5088 16.2981 21.4613C16.2946 21.4608 16.2912 21.4602 16.2878 21.4595C16.17 22.0919 15.9777 22.7494 15.6882 23.4204C16.2819 23.5637 17.1768 23.7699 17.7964 23.7059L17.875 22.0428C19.4682 21.0946 20.2731 19.9588 20.2731 19.9588ZM21.425 22.1628C20.9657 22.5472 20.3757 22.9261 19.8016 23.2675C19.3576 23.5314 18.9262 23.7647 18.5795 23.9372C18.4062 24.0234 18.2543 24.0944 18.1303 24.147C18.0062 24.1998 17.93 24.235 17.8188 24.2517C17.7235 24.266 17.6444 24.2595 17.5363 24.2507C17.4282 24.242 17.3009 24.227 17.1596 24.2077C16.8771 24.1692 16.5395 24.1135 16.2135 24.0561C15.935 24.0072 15.6751 23.9586 15.4571 23.9172C14.9883 24.8546 14.3226 25.8125 13.3984 26.7608C13.3984 26.7608 15.1324 26.893 17.2378 26.5321L17.736 24.9637C20.6188 23.6487 21.425 22.1628 21.425 22.1628Z" fill="#BB192E"/>
<path d="M8.88736 18.7227C8.54314 18.754 8.18995 18.7182 8.18995 18.7182C8.18995 18.7182 8.15866 18.4769 8.3196 18.2578C8.3196 18.2578 8.61013 18.5663 8.88736 18.7227Z" fill="white"/>
<path d="M9.28127 18.2862C8.94011 18.2307 8.51758 18.0902 8.51758 18.0902C8.51758 18.0902 8.63677 17.8576 8.90088 17.7079C8.90088 17.7079 9.05184 18.0656 9.28127 18.2862Z" fill="white"/>
<path d="M10.4356 17.2222C10.0944 17.1668 9.67188 17.0263 9.67188 17.0263C9.67188 17.0263 9.79107 16.7936 10.0552 16.6439C10.0552 16.644 10.2061 17.0017 10.4356 17.2222Z" fill="white"/>
<path d="M10.9933 16.9144C10.6732 16.7839 10.293 16.5523 10.293 16.5523C10.293 16.5523 10.4613 16.3523 10.7522 16.2656C10.7522 16.2656 10.8191 16.6481 10.9933 16.9144Z" fill="white"/>
<path d="M10.656 17.5919C10.656 17.5919 10.2008 18.123 10.1882 18.4391C10.1755 18.7552 9.97319 20.007 9.61914 20.7404C10.4571 20.3359 11.0646 19.7822 10.9595 18.2748L10.5295 18.9197L10.656 17.5919Z" fill="#FAD03D"/>
<path d="M10.9595 18.2748L10.6915 18.6767C10.5531 20.0198 9.61914 20.7405 9.61914 20.7405C10.4571 20.3359 11.0646 19.7822 10.9595 18.2748Z" fill="#EBA00F"/>
<path d="M10.8789 17.9172C11.1085 18.096 11.4371 18.2763 11.4371 18.2763C11.4371 18.2763 11.5125 18.0695 11.4536 17.8208C11.4536 17.8207 11.1464 17.9325 10.8789 17.9172Z" fill="white"/>
<path d="M10.6719 19.2049C10.9015 19.3837 11.2301 19.564 11.2301 19.564C11.2301 19.564 11.3054 19.3572 11.2465 19.1085C11.2466 19.1084 10.9394 19.2202 10.6719 19.2049Z" fill="white"/>
<path d="M10.3105 19.8906C10.4074 20.165 10.5868 20.4942 10.5868 20.4942C10.5868 20.4942 10.7618 20.3606 10.8465 20.1195C10.8465 20.1195 10.5276 20.0478 10.3105 19.8906Z" fill="white"/>
<path d="M15.1513 24.4822C14.7113 25.2375 14.1376 26.0022 13.3984 26.7607C13.3984 26.7607 14.6025 26.8523 16.2216 26.6742L17.0106 24.9368C16.1561 24.7909 15.5282 24.6089 15.1513 24.4822Z" fill="#F32C46"/>
<path d="M16.1831 21.9508C16.0661 22.43 15.9046 22.9214 15.6895 23.4204C16.0657 23.5112 16.5627 23.6271 17.0341 23.6836L17.2532 22.1114C16.9695 22.0996 16.4833 22.0105 16.1831 21.9508Z" fill="#F32C46"/>
<path d="M16.4363 19.474C16.4514 19.9377 16.4333 20.4267 16.3691 20.9349C16.3748 20.9359 16.3803 20.9369 16.386 20.9378C16.6618 20.9844 16.9486 21.0284 17.1849 21.056C17.198 21.0576 17.2107 21.0587 17.2237 21.06L17.2159 19.474H16.4363Z" fill="#F32C46"/>
<path d="M16.6459 17.0955L16.1406 17.3801C16.2288 17.7296 16.3061 18.1126 16.3605 18.5244C16.4231 18.5259 16.4839 18.5275 16.5481 18.5287C16.7135 18.5319 16.8795 18.5338 17.0269 18.5335C16.9064 17.7431 16.6459 17.0955 16.6459 17.0955Z" fill="#F32C46"/>
<path d="M22.1038 11.7877C19.5436 11.8112 16.5992 13.2297 16.5992 13.2297L15.7412 13.1582C15.473 13.4847 15.197 13.885 15.0312 14.3045L17.0923 14.393C17.0923 14.393 18.774 12.825 22.7443 11.8135C22.5349 11.7936 22.3207 11.7856 22.1038 11.7877Z" fill="#BB192E"/>
<path d="M21.7807 15.7907C20.975 15.7888 20.39 15.9103 20.39 15.9103L18.291 15.8091L19.0497 16.9471C19.0497 16.9471 22.843 15.9861 25.3972 17.1241C24.403 16.0276 22.8847 15.7933 21.7807 15.7907Z" fill="#BB192E"/>
<path d="M19.9844 18.0852L20.1867 19.2232C20.1867 19.2232 21.6654 20.1582 23.0204 21.7771C23.1844 21.5601 23.339 21.3455 23.4845 21.1338C22.4567 20.0276 20.6672 19.0082 20.6672 19.0082L19.9844 18.0852Z" fill="#BB192E"/>
<path d="M13.3262 6.05347C13.3262 6.05347 11.2745 7.76569 10.1992 9.96736C10.2249 9.98749 10.2505 10.0073 10.276 10.0268C10.5249 10.217 10.763 10.3752 10.9731 10.503C11.2904 9.68942 12.0933 7.80147 13.3262 6.05347Z" fill="white"/>
<path d="M10.8809 16.0621C9.51852 16.3339 9.00312 17.2634 9.00312 17.2634C8.02951 17.3519 7.79559 17.9715 7.73238 18.1864C7.66917 18.4014 7.76399 18.7428 7.76399 18.7428C7.13813 18.8629 6.76513 18.5215 6.67023 18.2939C6.57541 18.0663 6.26562 17.5669 6.26562 17.5669C6.26562 17.5669 6.46793 18.1738 6.46793 18.452C6.46793 18.7301 6.83464 19.2865 8.02322 19.1095C8.02322 19.1095 7.92839 18.6797 7.97266 18.4394C8.01693 18.1991 8.44048 17.5669 9.21817 17.4215C9.21809 17.4214 9.40144 16.4541 10.8809 16.0621Z" fill="#BB192E"/>
<path d="M12.646 15.1554C12.7175 17.3906 12.2526 18.8927 12.2526 18.8927C11.9397 19.4649 11.9307 20.4753 11.9307 20.4753C11.9307 20.4753 11.3853 20.7524 11.1707 20.7882C11.042 20.8097 10.8583 20.6997 10.7314 20.6081C10.713 20.6224 10.6954 20.6349 10.6789 20.6451C10.3928 20.8239 9.80273 21.0922 9.80273 21.0922C9.80273 21.0922 10.5895 21.6108 11.0187 21.5213C11.4478 21.4319 12.4135 20.7703 12.4135 20.7703C12.4135 20.7703 12.3062 19.5901 12.6817 18.8927C12.6818 18.8927 12.9857 16.8542 12.646 15.1554Z" fill="#BB192E"/>
<path d="M14.2466 9.10767C14.2466 9.10767 12.3752 10.5997 11.4648 12.4963C11.4648 12.4963 12.5584 11.0784 13.4615 10.4436L13.1933 12.6341L13.7745 12.6877C13.7744 12.6878 13.9684 11.0801 14.2466 9.10767Z" fill="#F56578"/>
<path d="M12.8301 13.4954L13.7784 14.2161L13.2376 15.8709C13.2376 15.8709 13.9708 14.9947 14.5966 13.582C14.5966 13.5819 13.5635 13.647 12.8301 13.4954Z" fill="#BB192E"/>
<path d="M8.4043 15.0883C8.4043 15.0883 8.77533 15.0972 8.79774 14.9944C8.82007 14.8915 8.87817 14.4043 9.12851 13.9885C9.12851 13.9885 8.73067 14.364 8.56524 14.905L8.4043 15.0883Z" fill="#BB192E"/>
<path d="M10.1978 9.96741C10.1978 9.96741 8.74365 12.6101 8.68044 12.8883C8.61722 13.1664 8.68044 13.5457 8.68044 13.5457C8.68044 13.5457 8.83219 13.002 8.92072 12.8376C9.00925 12.6732 10.261 10.7513 10.261 10.7513L11.753 10.9157C11.753 10.9158 11.0196 10.6123 10.1978 9.96741Z" fill="#F56578"/>
<path d="M10.1055 15.2781C10.1055 15.2781 10.7076 14.9588 10.788 14.4491C10.8685 13.9395 10.6986 13.7249 10.6986 13.7249L10.8774 13.3136L10.3767 13.8143C10.3767 13.8144 10.9249 14.3279 10.1055 15.2781Z" fill="#BB192E"/>
<path d="M15.8409 8.59253C15.8409 8.59253 15.5963 8.6916 15.1706 8.88871L15.1224 9.23105C15.0652 9.63612 15.0144 10.0109 14.9654 10.3742C16.2201 10.1648 17.3229 10.0792 18.2793 10.0748C18.4674 10.0739 18.6496 10.0763 18.8264 10.0814C17.0577 9.08441 15.8409 8.59253 15.8409 8.59253ZM24.3321 13.902C24.7977 14.4544 25.3001 15.1331 25.7605 15.9262C25.8341 15.5148 25.8438 15.283 25.8438 15.283C25.3468 14.7955 24.8403 14.3353 24.3321 13.902ZM7.29089 13.9524C6.80239 14.3711 6.31562 14.8143 5.83789 15.283C5.83789 15.283 5.85802 15.7774 6.07007 16.6085C6.21797 16.4811 6.38874 16.3181 6.55008 16.1513L6.8851 15.3289C6.80428 15.0069 6.9035 14.8633 6.9458 14.7244C6.99612 14.5592 7.05729 14.4221 7.11988 14.292C7.18765 14.151 7.23506 14.0507 7.29089 13.9524ZM14.5085 15.6027C14.1701 16.13 13.9161 16.4386 13.9161 16.4386L13.694 16.704C13.7258 17.9876 13.5584 19.0231 13.5584 19.0231L13.5356 19.1761C13.233 19.777 13.2976 20.7011 13.3432 21.207C12.6472 21.6693 11.8828 22.2379 11.2004 22.3877C10.5456 22.5242 10.1863 22.2888 9.87232 22.1402C9.5917 22.0074 9.39506 21.8809 9.35087 21.8522L8.88919 22.0751C9.88065 23.332 11.1939 24.661 12.9326 25.9665C15.4568 23.9171 16.3583 18.5244 14.5346 15.6464L14.5085 15.6027Z" fill="white"/>
<path d="M18.2813 10.9601C17.2547 10.9649 16.0392 11.0676 14.623 11.3331C14.623 11.3331 15.2042 11.4096 15.9349 11.5135C17.1612 11.2846 19.8177 10.9761 22.7407 11.8135C22.7398 11.813 21.36 10.9459 18.2813 10.9601Z" fill="#F56578"/>
<path d="M22.0709 12.8845L21.6641 12.9284C22.3319 13.4439 24.1481 14.9633 25.3981 17.1242C24.0941 14.4616 22.0709 12.8845 22.0709 12.8845Z" fill="#F56578"/>
<path d="M9.26787 15.1815C9.26787 15.1815 10.0771 14.6189 9.76729 13.8792C9.76737 13.8791 9.12878 14.467 9.26787 15.1815Z" fill="white"/>
</svg>
